<?xml version="1.0" encoding="UTF-8" standalone="no"?>
<!-- Created with Inkscape (http://www.inkscape.org/) -->

<svg
   xmlns:dc="http://purl.org/dc/elements/1.1/"
   xmlns:cc="http://creativecommons.org/ns#"
   xmlns:rdf="http://www.w3.org/1999/02/22-rdf-syntax-ns#"
   xmlns:svg="http://www.w3.org/2000/svg"
   xmlns="http://www.w3.org/2000/svg"
   xmlns:sodipodi="http://sodipodi.sourceforge.net/DTD/sodipodi-0.dtd"
   xmlns:inkscape="http://www.inkscape.org/namespaces/inkscape"
   width="332.87741"
   height="332.6312"
   id="svg2"
   version="1.1"
   inkscape:version="0.48.4 r9939"
   sodipodi:docname="New document 1">
  <defs
     id="defs4">
    <marker
       inkscape:stockid="TriangleOutM"
       orient="auto"
       refY="0"
       refX="0"
       id="TriangleOutM"
       style="overflow:visible">
      <path
         id="path3994"
         d="m 5.77,0 -8.65,5 0,-10 8.65,5 z"
         style="fill-rule:evenodd;stroke:#000000;stroke-width:1pt"
         transform="scale(0.4,0.4)"
         inkscape:connector-curvature="0" />
    </marker>
    <marker
       inkscape:stockid="TriangleOutL"
       orient="auto"
       refY="0"
       refX="0"
       id="TriangleOutL"
       style="overflow:visible">
      <path
         id="path3991"
         d="m 5.77,0 -8.65,5 0,-10 8.65,5 z"
         style="fill-rule:evenodd;stroke:#000000;stroke-width:1pt"
         transform="scale(0.8,0.8)"
         inkscape:connector-curvature="0" />
    </marker>
    <marker
       inkscape:stockid="Arrow1Lend"
       orient="auto"
       refY="0"
       refX="0"
       id="Arrow1Lend"
       style="overflow:visible">
      <path
         id="path3852"
         d="M 0,0 5,-5 -12.5,0 5,5 0,0 z"
         style="fill-rule:evenodd;stroke:#000000;stroke-width:1pt"
         transform="matrix(-0.8,0,0,-0.8,-10,0)"
         inkscape:connector-curvature="0" />
    </marker>
    <marker
       inkscape:stockid="StopM"
       orient="auto"
       refY="0"
       refX="0"
       id="StopM"
       style="overflow:visible">
      <path
         id="path4021"
         d="M 0,5.65 0,-5.65"
         style="fill:none;stroke:#000000;stroke-width:1pt"
         transform="scale(0.4,0.4)"
         inkscape:connector-curvature="0" />
    </marker>
    <marker
       inkscape:stockid="StopL"
       orient="auto"
       refY="0"
       refX="0"
       id="StopL"
       style="overflow:visible">
      <path
         id="path4018"
         d="M 0,5.65 0,-5.65"
         style="fill:none;stroke:#000000;stroke-width:1pt"
         transform="scale(0.8,0.8)"
         inkscape:connector-curvature="0" />
    </marker>
    <marker
       inkscape:stockid="StopL"
       orient="auto"
       refY="0"
       refX="0"
       id="StopL-9"
       style="overflow:visible">
      <path
         inkscape:connector-curvature="0"
         id="path4018-7"
         d="M 0,5.65 0,-5.65"
         style="fill:none;stroke:#000000;stroke-width:1pt"
         transform="scale(0.8,0.8)" />
    </marker>
    <marker
       inkscape:stockid="TriangleOutM"
       orient="auto"
       refY="0"
       refX="0"
       id="TriangleOutM-3"
       style="overflow:visible">
      <path
         inkscape:connector-curvature="0"
         id="path3994-5"
         d="m 5.77,0 -8.65,5 0,-10 8.65,5 z"
         style="fill-rule:evenodd;stroke:#000000;stroke-width:1pt"
         transform="scale(0.4,0.4)" />
    </marker>
    <marker
       inkscape:stockid="StopL"
       orient="auto"
       refY="0"
       refX="0"
       id="StopL-1"
       style="overflow:visible">
      <path
         inkscape:connector-curvature="0"
         id="path4018-0"
         d="M 0,5.65 0,-5.65"
         style="fill:none;stroke:#000000;stroke-width:1pt"
         transform="scale(0.8,0.8)" />
    </marker>
    <marker
       inkscape:stockid="TriangleOutM"
       orient="auto"
       refY="0"
       refX="0"
       id="TriangleOutM-7"
       style="overflow:visible">
      <path
         inkscape:connector-curvature="0"
         id="path3994-2"
         d="m 5.77,0 -8.65,5 0,-10 8.65,5 z"
         style="fill-rule:evenodd;stroke:#000000;stroke-width:1pt"
         transform="scale(0.4,0.4)" />
    </marker>
    <marker
       inkscape:stockid="StopL"
       orient="auto"
       refY="0"
       refX="0"
       id="StopL-6"
       style="overflow:visible">
      <path
         inkscape:connector-curvature="0"
         id="path4018-8"
         d="M 0,5.65 0,-5.65"
         style="fill:none;stroke:#000000;stroke-width:1pt"
         transform="scale(0.8,0.8)" />
    </marker>
    <marker
       inkscape:stockid="StopL"
       orient="auto"
       refY="0"
       refX="0"
       id="StopL-4"
       style="overflow:visible">
      <path
         inkscape:connector-curvature="0"
         id="path4018-6"
         d="M 0,5.65 0,-5.65"
         style="fill:none;stroke:#000000;stroke-width:1pt"
         transform="scale(0.8,0.8)" />
    </marker>
    <marker
       inkscape:stockid="TriangleOutM"
       orient="auto"
       refY="0"
       refX="0"
       id="TriangleOutM-9"
       style="overflow:visible">
      <path
         inkscape:connector-curvature="0"
         id="path3994-52"
         d="m 5.77,0 -8.65,5 0,-10 8.65,5 z"
         style="fill-rule:evenodd;stroke:#000000;stroke-width:1pt"
         transform="scale(0.4,0.4)" />
    </marker>
    <marker
       inkscape:stockid="TriangleOutM"
       orient="auto"
       refY="0"
       refX="0"
       id="TriangleOutM-6"
       style="overflow:visible">
      <path
         inkscape:connector-curvature="0"
         id="path3994-8"
         d="m 5.77,0 -8.65,5 0,-10 8.65,5 z"
         style="fill-rule:evenodd;stroke:#000000;stroke-width:1pt"
         transform="scale(0.4,0.4)" />
    </marker>
    <marker
       inkscape:stockid="TriangleOutM"
       orient="auto"
       refY="0"
       refX="0"
       id="TriangleOutM-2"
       style="overflow:visible">
      <path
         inkscape:connector-curvature="0"
         id="path3994-9"
         d="m 5.77,0 -8.65,5 0,-10 8.65,5 z"
         style="fill-rule:evenodd;stroke:#000000;stroke-width:1pt"
         transform="scale(0.4,0.4)" />
    </marker>
    <marker
       inkscape:stockid="TriangleOutM"
       orient="auto"
       refY="0"
       refX="0"
       id="marker7247"
       style="overflow:visible">
      <path
         inkscape:connector-curvature="0"
         id="path7249"
         d="m 5.77,0 -8.65,5 0,-10 8.65,5 z"
         style="fill-rule:evenodd;stroke:#000000;stroke-width:1pt"
         transform="scale(0.4,0.4)" />
    </marker>
    <marker
       inkscape:stockid="TriangleOutM"
       orient="auto"
       refY="0"
       refX="0"
       id="marker7251"
       style="overflow:visible">
      <path
         inkscape:connector-curvature="0"
         id="path7253"
         d="m 5.77,0 -8.65,5 0,-10 8.65,5 z"
         style="fill-rule:evenodd;stroke:#000000;stroke-width:1pt"
         transform="scale(0.4,0.4)" />
    </marker>
    <marker
       inkscape:stockid="StopL"
       orient="auto"
       refY="0"
       refX="0"
       id="StopL-10"
       style="overflow:visible">
      <path
         inkscape:connector-curvature="0"
         id="path4018-5"
         d="M 0,5.65 0,-5.65"
         style="fill:none;stroke:#000000;stroke-width:1pt"
         transform="scale(0.8,0.8)" />
    </marker>
    <marker
       inkscape:stockid="TriangleOutM"
       orient="auto"
       refY="0"
       refX="0"
       id="TriangleOutM-0"
       style="overflow:visible">
      <path
         inkscape:connector-curvature="0"
         id="path3994-85"
         d="m 5.77,0 -8.65,5 0,-10 8.65,5 z"
         style="fill-rule:evenodd;stroke:#000000;stroke-width:1pt"
         transform="scale(0.4,0.4)" />
    </marker>
    <marker
       inkscape:stockid="TriangleOutM"
       orient="auto"
       refY="0"
       refX="0"
       id="TriangleOutM-8"
       style="overflow:visible">
      <path
         inkscape:connector-curvature="0"
         id="path3994-4"
         d="m 5.77,0 -8.65,5 0,-10 8.65,5 z"
         style="fill-rule:evenodd;stroke:#000000;stroke-width:1pt"
         transform="scale(0.4,0.4)" />
    </marker>
    <marker
       inkscape:stockid="TriangleOutM"
       orient="auto"
       refY="0"
       refX="0"
       id="TriangleOutM-80"
       style="overflow:visible">
      <path
         inkscape:connector-curvature="0"
         id="path3994-23"
         d="m 5.77,0 -8.65,5 0,-10 8.65,5 z"
         style="fill-rule:evenodd;stroke:#000000;stroke-width:1pt"
         transform="scale(0.4,0.4)" />
    </marker>
  </defs>
  <sodipodi:namedview
     id="base"
     pagecolor="#ffffff"
     bordercolor="#666666"
     borderopacity="1.0"
     inkscape:pageopacity="0.0"
     inkscape:pageshadow="2"
     inkscape:zoom="1.4142136"
     inkscape:cx="177.77198"
     inkscape:cy="68.829453"
     inkscape:document-units="px"
     inkscape:current-layer="layer1"
     showgrid="false"
     width="10px"
     units="mm"
     inkscape:snap-grids="true"
     fit-margin-top="0"
     fit-margin-left="0"
     fit-margin-right="0"
     fit-margin-bottom="0"
     inkscape:snap-page="true"
     inkscape:window-width="1280"
     inkscape:window-height="947"
     inkscape:window-x="1600"
     inkscape:window-y="24"
     inkscape:window-maximized="1">
    <inkscape:grid
       type="xygrid"
       id="grid2989"
       empspacing="5"
       visible="true"
       enabled="true"
       snapvisiblegridlinesonly="true"
       originx="-7.561292px"
       originy="-12.954699px" />
  </sodipodi:namedview>
  <metadata
     id="metadata7">
    <rdf:RDF>
      <cc:Work
         rdf:about="">
        <dc:format>image/svg+xml</dc:format>
        <dc:type
           rdf:resource="http://purl.org/dc/dcmitype/StillImage" />
        <dc:title></dc:title>
      </cc:Work>
    </rdf:RDF>
  </metadata>
  <g
     inkscape:label="Layer 1"
     inkscape:groupmode="layer"
     id="layer1"
     transform="translate(-7.561292,-706.77606)">
    <rect
       style="fill:#ffffff;stroke:none;stroke-width:2.50000000000000000;stroke-miterlimit:4;stroke-opacity:1;stroke-dasharray:none;stroke-dashoffset:0"
       id="rect7478"
       width="332.87741"
       height="332.6312"
       x="0"
       y="0"
       transform="translate(7.561292,706.77606)" />
    <path
       sodipodi:type="arc"
       style="fill:#ff0000;fill-opacity:1;stroke:#ff0000;stroke-width:3;stroke-miterlimit:4;stroke-opacity:1;stroke-dasharray:none;stroke-dashoffset:0"
       id="path2991"
       sodipodi:cx="45"
       sodipodi:cy="49.330688"
       sodipodi:rx="5"
       sodipodi:ry="5"
       d="m 50,49.330688 c 0,2.761424 -2.238576,5 -5,5 -2.761424,0 -5,-2.238576 -5,-5 0,-2.761423 2.238576,-5 5,-5 2.761424,0 5,2.238577 5,5 z"
       transform="matrix(2,0,0,2,-6.521027,636.45058)" />
    <rect
       style="fill:#0000ff;fill-opacity:1;stroke:#0000ff;stroke-width:6;stroke-miterlimit:4;stroke-opacity:1;stroke-dasharray:none;stroke-dashoffset:0"
       id="rect2993"
       width="20"
       height="20"
       x="113.47897"
       y="796.46552" />
    <path
       sodipodi:type="star"
       style="fill:#008000;fill-opacity:1;stroke:#008000;stroke-width:3;stroke-miterlimit:4;stroke-opacity:1;stroke-dasharray:none;stroke-dashoffset:0"
       id="path3003"
       sodipodi:sides="3"
       sodipodi:cx="100"
       sodipodi:cy="84.330688"
       sodipodi:r1="10"
       sodipodi:r2="8.0901699"
       sodipodi:arg1="-1.5707963"
       sodipodi:arg2="-0.52359875"
       inkscape:flatsided="true"
       inkscape:rounded="0"
       inkscape:randomized="0"
       d="m 100,74.330688 8.66025,15.000001 -17.320504,-1e-6 z"
       transform="matrix(1.4596774,0,0,1.41271,-101.90972,691.05745)"
       inkscape:transform-center-y="-0.67450195" />
    <path
       sodipodi:type="arc"
       style="fill:#ff0000;fill-opacity:1;stroke:#ff0000;stroke-width:3;stroke-miterlimit:4;stroke-opacity:1;stroke-dasharray:none;stroke-dashoffset:0"
       id="path2991-8"
       sodipodi:cx="45"
       sodipodi:cy="49.330688"
       sodipodi:rx="5"
       sodipodi:ry="5"
       d="m 50,49.330688 c 0,2.761424 -2.238576,5 -5,5 -2.761424,0 -5,-2.238576 -5,-5 0,-2.761423 2.238576,-5 5,-5 2.761424,0 5,2.238577 5,5 z"
       transform="matrix(2,0,0,2,-6.521027,823.74347)" />
    <rect
       style="fill:#0000ff;fill-opacity:1;stroke:#0000ff;stroke-width:6;stroke-miterlimit:4;stroke-opacity:1;stroke-dasharray:none;stroke-dashoffset:0"
       id="rect2993-0"
       width="20"
       height="20"
       x="113.47897"
       y="983.75848" />
    <path
       sodipodi:type="star"
       style="fill:#008000;fill-opacity:1;stroke:#008000;stroke-width:3;stroke-miterlimit:4;stroke-opacity:1;stroke-dasharray:none;stroke-dashoffset:0"
       id="path3003-6"
       sodipodi:sides="3"
       sodipodi:cx="100"
       sodipodi:cy="84.330688"
       sodipodi:r1="10"
       sodipodi:r2="8.0901699"
       sodipodi:arg1="-1.5707963"
       sodipodi:arg2="-0.52359875"
       inkscape:flatsided="true"
       inkscape:rounded="0"
       inkscape:randomized="0"
       d="m 100,74.330688 8.66025,15.000001 -17.320504,-1e-6 z"
       transform="matrix(1.4596774,0,0,1.41271,-101.90972,878.35034)"
       inkscape:transform-center-y="-0.67450195" />
    <path
       sodipodi:type="arc"
       style="fill:#ff0000;fill-opacity:1;stroke:#ff0000;stroke-width:3;stroke-miterlimit:4;stroke-opacity:1;stroke-dasharray:none;stroke-dashoffset:0"
       id="path2991-84"
       sodipodi:cx="45"
       sodipodi:cy="49.330688"
       sodipodi:rx="5"
       sodipodi:ry="5"
       d="m 50,49.330688 c 0,2.761424 -2.238576,5 -5,5 -2.761424,0 -5,-2.238576 -5,-5 0,-2.761423 2.238576,-5 5,-5 2.761424,0 5,2.238577 5,5 z"
       transform="matrix(2,0,0,2,180.97897,824.45058)" />
    <rect
       style="fill:#0000ff;fill-opacity:1;stroke:#0000ff;stroke-width:6;stroke-miterlimit:4;stroke-opacity:1;stroke-dasharray:none;stroke-dashoffset:0"
       id="rect2993-9"
       width="20"
       height="20"
       x="300.97897"
       y="984.46552" />
    <path
       sodipodi:type="star"
       style="fill:#008000;fill-opacity:1;stroke:#008000;stroke-width:3;stroke-miterlimit:4;stroke-opacity:1;stroke-dasharray:none;stroke-dashoffset:0"
       id="path3003-1"
       sodipodi:sides="3"
       sodipodi:cx="100"
       sodipodi:cy="84.330688"
       sodipodi:r1="10"
       sodipodi:r2="8.0901699"
       sodipodi:arg1="-1.5707963"
       sodipodi:arg2="-0.52359875"
       inkscape:flatsided="true"
       inkscape:rounded="0"
       inkscape:randomized="0"
       d="m 100,74.330688 8.66025,15.000001 -17.320504,-1e-6 z"
       transform="matrix(1.4596774,0,0,1.41271,85.59028,879.05745)"
       inkscape:transform-center-y="-0.67450195" />
    <path
       sodipodi:type="arc"
       style="fill:#ff0000;fill-opacity:1;stroke:#ff0000;stroke-width:3;stroke-miterlimit:4;stroke-opacity:1;stroke-dasharray:none;stroke-dashoffset:0"
       id="path2991-7"
       sodipodi:cx="45"
       sodipodi:cy="49.330688"
       sodipodi:rx="5"
       sodipodi:ry="5"
       d="m 50,49.330688 c 0,2.761424 -2.238576,5 -5,5 -2.761424,0 -5,-2.238576 -5,-5 0,-2.761423 2.238576,-5 5,-5 2.761424,0 5,2.238577 5,5 z"
       transform="matrix(2,0,0,2,177.47897,638.45058)" />
    <rect
       style="fill:#0000ff;fill-opacity:1;stroke:#0000ff;stroke-width:6;stroke-miterlimit:4;stroke-opacity:1;stroke-dasharray:none;stroke-dashoffset:0"
       id="rect2993-4"
       width="20"
       height="20"
       x="297.47897"
       y="798.46552" />
    <path
       sodipodi:type="star"
       style="fill:#008000;fill-opacity:1;stroke:#008000;stroke-width:3;stroke-miterlimit:4;stroke-opacity:1;stroke-dasharray:none;stroke-dashoffset:0"
       id="path3003-5"
       sodipodi:sides="3"
       sodipodi:cx="100"
       sodipodi:cy="84.330688"
       sodipodi:r1="10"
       sodipodi:r2="8.0901699"
       sodipodi:arg1="-1.5707963"
       sodipodi:arg2="-0.52359875"
       inkscape:flatsided="true"
       inkscape:rounded="0"
       inkscape:randomized="0"
       d="m 100,74.330688 8.66025,15.000001 -17.320504,-1e-6 z"
       transform="matrix(1.4596774,0,0,1.41271,82.09028,693.05745)"
       inkscape:transform-center-y="-0.67450195" />
    <path
       style="fill:none;stroke:#000000;stroke-width:2.5;stroke-linecap:butt;stroke-linejoin:miter;stroke-miterlimit:4;stroke-opacity:1;stroke-dasharray:none;marker-end:url(#StopL)"
       d="m 233.6582,788.22889 c 17.67521,-37.08054 17.67521,-37.08054 17.67521,-37.08054"
       id="path5119"
       inkscape:connector-curvature="0" />
    <path
       style="fill:none;stroke:#000000;stroke-width:2.5;stroke-linecap:butt;stroke-linejoin:miter;stroke-miterlimit:4;stroke-opacity:1;stroke-dasharray:none;marker-end:url(#TriangleOutM)"
       d="m 58.515387,807.37236 c 41.074673,0.0792 41.074673,0.0792 41.074673,0.0792"
       id="path5119-9"
       inkscape:connector-curvature="0" />
    <path
       style="fill:none;stroke:#000000;stroke-width:2.5;stroke-linecap:butt;stroke-linejoin:miter;stroke-miterlimit:4;stroke-opacity:1;stroke-dasharray:none;marker-end:url(#TriangleOutM)"
       d="m 243.9296,807.95815 c 41.07467,0.0792 41.07467,0.0792 41.07467,0.0792"
       id="path5119-9-0"
       inkscape:connector-curvature="0" />
    <path
       style="fill:none;stroke:#000000;stroke-width:2.5;stroke-linecap:butt;stroke-linejoin:miter;stroke-miterlimit:4;stroke-opacity:1;stroke-dasharray:none;marker-end:url(#StopL-6)"
       d="M 45.900846,974.10757 C 63.576053,937.02703 63.576053,937.02703 63.576053,937.02703"
       id="path5119-8"
       inkscape:connector-curvature="0" />
    <path
       style="fill:none;stroke:#000000;stroke-width:2.5;stroke-linecap:butt;stroke-linejoin:miter;stroke-miterlimit:4;stroke-opacity:1;stroke-dasharray:none;marker-end:url(#TriangleOutM)"
       d="m 259.74452,761.22254 c -17.36594,37.2231 -17.36594,37.2231 -17.36594,37.2231"
       id="path5119-9-7"
       inkscape:connector-curvature="0" />
    <path
       style="fill:none;stroke:#000000;stroke-width:2.5;stroke-linecap:butt;stroke-linejoin:miter;stroke-miterlimit:4;stroke-opacity:1;stroke-dasharray:none;marker-end:url(#StopL)"
       d="M 48.6582,786.22889 C 66.33341,749.14835 66.33341,749.14835 66.33341,749.14835"
       id="path5119-7"
       inkscape:connector-curvature="0" />
    <path
       style="fill:none;stroke:#000000;stroke-width:2.5;stroke-linecap:butt;stroke-linejoin:miter;stroke-miterlimit:4;stroke-opacity:1;stroke-dasharray:none;marker-end:url(#TriangleOutM)"
       d="M 117.42384,789.36131 C 99.98265,752.17341 99.98265,752.17341 99.98265,752.17341"
       id="path5119-9-9"
       inkscape:connector-curvature="0" />
    <path
       style="fill:none;stroke:#000000;stroke-width:2.5;stroke-linecap:butt;stroke-linejoin:miter;stroke-miterlimit:4;stroke-opacity:1;stroke-dasharray:none;marker-end:url(#TriangleOutM)"
       d="m 304.42384,790.86131 c -17.44119,-37.1879 -17.44119,-37.1879 -17.44119,-37.1879"
       id="path5119-9-9-9"
       inkscape:connector-curvature="0" />
    <path
       style="fill:none;stroke:#000000;stroke-width:2.5;stroke-linecap:butt;stroke-linejoin:miter;stroke-miterlimit:4;stroke-opacity:1;stroke-dasharray:none;marker-end:url(#StopL)"
       d="m 238.1582,974.22889 c 17.67521,-37.08054 17.67521,-37.08054 17.67521,-37.08054"
       id="path5119-89"
       inkscape:connector-curvature="0" />
    <path
       style="fill:none;stroke:#000000;stroke-width:2.5;stroke-linecap:butt;stroke-linejoin:miter;stroke-miterlimit:4;stroke-opacity:1;stroke-dasharray:none;marker-end:url(#TriangleOutM)"
       d="m 264.24452,947.22254 c -17.36594,37.2231 -17.36594,37.2231 -17.36594,37.2231"
       id="path5119-9-7-8"
       inkscape:connector-curvature="0" />
    <path
       style="fill:none;stroke:#000000;stroke-width:2.5;stroke-linecap:butt;stroke-linejoin:miter;stroke-miterlimit:4;stroke-opacity:1;stroke-dasharray:none;marker-end:url(#TriangleOutM)"
       d="m 308.92384,976.86131 c -17.44119,-37.1879 -17.44119,-37.1879 -17.44119,-37.1879"
       id="path5119-9-9-9-4"
       inkscape:connector-curvature="0" />
    <path
       style="fill:none;stroke:#000000;stroke-width:2.5;stroke-linecap:butt;stroke-linejoin:miter;stroke-miterlimit:4;stroke-opacity:1;stroke-dasharray:none;marker-end:url(#TriangleOutM)"
       d="M 117.92384,977.6542 C 100.48265,940.4663 100.48265,940.4663 100.48265,940.4663"
       id="path5119-9-9-9-4-2"
       inkscape:connector-curvature="0" />
    <path
       sodipodi:type="arc"
       style="fill:none;stroke:#000000;stroke-width:2.5;stroke-miterlimit:4;stroke-opacity:1;stroke-dasharray:none;stroke-dashoffset:0"
       id="path7364"
       sodipodi:cx="80"
       sodipodi:cy="74.330688"
       sodipodi:rx="80"
       sodipodi:ry="80"
       d="m 160,74.330688 c 0,44.182782 -35.81722,80.000002 -80,80.000002 -44.18278,0 -80,-35.81722 -80,-80.000002 0,-44.18278 35.81722,-79.9999995 80,-79.9999995 44.18278,0 80,35.8172195 80,79.9999995 z"
       transform="matrix(0.9,0,0,0.9,8.686292,714.4349)" />
    <path
       sodipodi:type="arc"
       style="fill:none;stroke:#000000;stroke-width:2.5;stroke-miterlimit:4;stroke-opacity:1;stroke-dasharray:none;stroke-dashoffset:0"
       id="path7364-1"
       sodipodi:cx="80"
       sodipodi:cy="74.330688"
       sodipodi:rx="80"
       sodipodi:ry="80"
       d="m 160,74.330688 c 0,44.182782 -35.81722,80.000002 -80,80.000002 -44.18278,0 -80,-35.81722 -80,-80.000002 0,-44.18278 35.81722,-79.9999995 80,-79.9999995 44.18278,0 80,35.8172195 80,79.9999995 z"
       transform="matrix(0.9,0,0,0.9,195.31371,713.00344)" />
    <path
       sodipodi:type="arc"
       style="fill:none;stroke:#000000;stroke-width:2.5;stroke-miterlimit:4;stroke-opacity:1;stroke-dasharray:none;stroke-dashoffset:0"
       id="path7364-3"
       sodipodi:cx="80"
       sodipodi:cy="74.330688"
       sodipodi:rx="80"
       sodipodi:ry="80"
       d="m 160,74.330688 c 0,44.182782 -35.81722,80.000002 -80,80.000002 -44.18278,0 -80,-35.81722 -80,-80.000002 0,-44.18278 35.81722,-79.9999995 80,-79.9999995 44.18278,0 80,35.8172195 80,79.9999995 z"
       transform="matrix(0.9,0,0,0.9,9.514719,899.38464)" />
    <path
       sodipodi:type="arc"
       style="fill:none;stroke:#000000;stroke-width:2.5;stroke-miterlimit:4;stroke-opacity:1;stroke-dasharray:none;stroke-dashoffset:0"
       id="path7364-3-6"
       sodipodi:cx="80"
       sodipodi:cy="74.330688"
       sodipodi:rx="80"
       sodipodi:ry="80"
       d="m 160,74.330688 c 0,44.182782 -35.81722,80.000002 -80,80.000002 -44.18278,0 -80,-35.81722 -80,-80.000002 0,-44.18278 35.81722,-79.9999995 80,-79.9999995 44.18278,0 80,35.8172195 80,79.9999995 z"
       transform="matrix(0.9,0,0,0.9,195.19849,897.68973)" />
    <path
       style="fill:none;stroke:#000000;stroke-width:2.54373503;stroke-linecap:butt;stroke-linejoin:miter;stroke-miterlimit:4;stroke-opacity:1;stroke-dasharray:none"
       d="m 153.29412,778.36196 41.41176,0 0,0"
       id="path7422"
       inkscape:connector-curvature="0" />
    <path
       style="fill:none;stroke:#000000;stroke-width:2.54373503;stroke-linecap:butt;stroke-linejoin:miter;stroke-miterlimit:4;stroke-opacity:1;stroke-dasharray:none"
       d="m 154.04412,963.61196 41.41176,0 0,0"
       id="path7422-8"
       inkscape:connector-curvature="0" />
    <path
       style="fill:none;stroke:#000000;stroke-width:2.54373503;stroke-linecap:butt;stroke-linejoin:miter;stroke-miterlimit:4;stroke-opacity:1;stroke-dasharray:none"
       d="m 268.75,851.90608 0,41.41176 0,0"
       id="path7422-8-5"
       inkscape:connector-curvature="0" />
    <path
       style="fill:none;stroke:#000000;stroke-width:2.54373503;stroke-linecap:butt;stroke-linejoin:miter;stroke-miterlimit:4;stroke-opacity:1;stroke-dasharray:none"
       d="m 80.75,853.90608 0,41.41176 0,0"
       id="path7422-8-5-7"
       inkscape:connector-curvature="0" />
  </g>
</svg>
